<svg width="256" height="256" viewBox="0 0 256 256" xmlns="http://www.w3.org/2000/svg">
  <defs>
    <linearGradient id="grad" x1="0%" y1="0%" x2="100%" y2="100%">
      <stop offset="0%" stop-color="#4CAF82" />
      <stop offset="100%" stop-color="#9575CD" />
    </linearGradient>
  </defs>
  <rect width="256" height="256" rx="64" fill="url(#grad)" />
  <path d="M128 72C102.6 72 82 92.6 82 118C82 143.4 102.6 164 128 164C153.4 164 174 143.4 174 118C174 92.6 153.4 72 128 72ZM128 88C144.5 88 158 101.5 158 118C158 134.5 144.5 148 128 148C111.5 148 98 134.5 98 118C98 101.5 111.5 88 128 88Z" fill="white"/>
  <path d="M134 189.6L134 189.6C133.4 190.5 132.5 191.1 131.6 191.5C130.6 191.9 129.5 192 128.4 191.8C127.3 191.6 126.3 191.1 125.5 190.4C124.7 189.6 124.2 188.7 124 187.7L107.7 102C107.4 100.8 107.5 99.6 108 98.5C108.5 97.4 109.3 96.4 110.4 95.8C111.5 95.2 112.7 94.9 113.9 95C115.1 95.1 116.3 95.6 117.2 96.5L145.5 171.3C145.9 172.2 146 173.2 145.9 174.2C145.7 175.2 145.3 176.1 144.6 176.9C144 177.6 143.1 178.2 142.2 178.5C141.2 178.8 140.2 178.8 139.2 178.5L128 174.5L136.8 184.7C137.5 185.5 137.9 186.6 138 187.6C138.1 188.7 137.8 189.7 137.3 190.6C136.8 191.5 135.9 192.2 135 192.6C134 193 133 193.1 132 192.9L122 190.2L134 189.6Z" fill="white"/>
</svg>